# File created by Blade
# Date/Time:  Tue Jan 27 19:23:16 2015
# Frame Rate: 120.000 fps
#------------------------------------------------------
:FULLY-SPECIFIED
:DEGREES
3694
root 1.444822 32.226879 0.405776 -2.420440 -17.948760 -1.727272
Spine 2.697680 -15.986666 -4.394515
Head 13.162043 0.212466 7.339196
LeftShoulder -12.518440 3.693656 30.028454
LeftArm -9.780843 41.683798 -109.267990
LeftForeArm 3.049942 -0.000000 19.315500
LeftHand 9.766160 -0.000000 -5.657010
LeftHandThumb1 -26.253704 0.000000 33.147579
RightShoulder -31.348004 -22.686815 -35.701367
RightArm 141.605210 106.529046 198.147466
RightForeArm 25.929882 -0.000000 100.825771
RightHand 26.198596 -0.000000 -13.011278
RightHandThumb1 -24.326973 -0.000000 -32.862282
LeftUpLeg 15.996900 20.075930 8.263369
LeftLeg -1.363397 -0.000000 0.000000
LeftFoot -17.649612 12.322573 -26.987053
LeftToeBase 17.054804 -0.000000 -0.000000
RightUpLeg 6.597449 6.686027 8.181489
RightLeg 2.472702 -0.000000 -0.000000
RightFoot -10.236428 -11.586113 10.748407
RightToeBase 12.956239 -0.000000 -0.000000
3695
root 1.440485 32.226791 0.401851 -2.421004 -18.017200 -1.737312
Spine 2.701641 -15.945799 -4.404927
Head 13.176044 0.225785 7.333205
LeftShoulder -12.513659 3.710416 30.031733
LeftArm -9.754332 41.683040 -109.260333
LeftForeArm 3.055427 0.000000 19.308019
LeftHand 9.709167 -0.000000 -5.648573
LeftHandThumb1 -26.253704 0.000000 33.147579
RightShoulder -31.336534 -22.681445 -35.720343
RightArm 141.720798 106.530336 198.222985
RightForeArm 25.836570 -0.000000 100.858881
RightHand 26.170617 -0.000000 -13.047775
RightHandThumb1 -24.326973 -0.000000 -32.862282
LeftUpLeg 16.004269 20.092106 8.274847
LeftLeg -1.341377 -0.000000 0.000000
LeftFoot -17.649751 12.374699 -26.920092
LeftToeBase 16.853781 -0.000000 -0.000000
RightUpLeg 6.584645 6.688600 8.193911
RightLeg 2.491438 -0.000000 -0.000000
RightFoot -10.215994 -11.529334 10.737899
RightToeBase 12.931670 -0.000000 -0.000000
3696
root 1.436077 32.226526 0.397747 -2.420153 -18.079091 -1.747569
Spine 2.710119 -15.916209 -4.416513
Head 13.174609 0.246972 7.328410
LeftShoulder -12.506401 3.709446 30.041447
LeftArm -9.751066 41.678097 -109.270748
LeftForeArm 3.040518 -0.000000 19.289041
LeftHand 9.688174 -0.000000 -5.617422
LeftHandThumb1 -26.253704 0.000000 33.147579
RightShoulder -31.317417 -22.676311 -35.724618
RightArm 141.750573 106.527222 198.205186
RightForeArm 25.748497 -0.000000 100.868920
RightHand 26.216412 0.000000 -13.026949
RightHandThumb1 -24.326973 -0.000000 -32.862282
LeftUpLeg 16.019152 20.103639 8.291646
LeftLeg -1.351044 -0.000000 0.000000
LeftFoot -17.718162 12.405025 -27.035235
LeftToeBase 17.061148 -0.000000 -0.000000
RightUpLeg 6.570013 6.694149 8.206981
RightLeg 2.509394 -0.000000 -0.000000
RightFoot -10.200977 -11.480482 10.716930
RightToeBase 12.950203 -0.000000 -0.000000
3697
root 1.431400 32.226489 0.393808 -2.420263 -18.139354 -1.758772
Spine 2.717812 -15.877420 -4.427389
Head 13.180118 0.238818 7.322769
LeftShoulder -12.484117 3.697919 30.053068
LeftArm -9.755231 41.665553 -109.278619
LeftForeArm 2.996167 -0.000000 19.286353
LeftHand 9.662849 -0.000000 -5.632785
LeftHandThumb1 -26.253704 0.000000 33.147579
RightShoulder -31.309337 -22.672711 -35.741056
RightArm 141.853260 106.515231 198.263906
RightForeArm 25.733317 0.000000 100.879193
RightHand 26.255685 -0.000000 -13.039854
RightHandThumb1 -24.326973 -0.000000 -32.862282
LeftUpLeg 16.031840 20.122655 8.311235
LeftLeg -1.346221 -0.000000 0.000000
LeftFoot -17.742271 12.422733 -27.084302
LeftToeBase 17.010578 -0.000000 -0.000000
RightUpLeg 6.561086 6.725137 8.225518
RightLeg 2.522835 -0.000000 -0.000000
RightFoot -10.186200 -11.449942 10.721269
RightToeBase 12.980443 -0.000000 -0.000000
3698
root 1.427383 32.226461 0.389997 -2.421806 -18.196270 -1.767560
Spine 2.728025 -15.858714 -4.440446
Head 13.184019 0.258237 7.323478
LeftShoulder -12.474796 3.712503 30.050346
LeftArm -9.736613 41.634939 -109.263387
LeftForeArm 3.000900 -0.000000 19.292049
LeftHand 9.683452 -0.000000 -5.635209
LeftHandThumb1 -26.253704 0.000000 33.147579
RightShoulder -31.299610 -22.667127 -35.753779
RightArm 141.992819 106.500617 198.346768
RightForeArm 25.730221 -0.000000 100.876005
RightHand 26.310336 -0.000000 -13.049922
RightHandThumb1 -24.326973 -0.000000 -32.862282
LeftUpLeg 16.042020 20.129317 8.323038
LeftLeg -1.339590 -0.000000 0.000000
LeftFoot -17.756129 12.470055 -27.071798
LeftToeBase 17.063374 -0.000000 -0.000000
RightUpLeg 6.548616 6.732167 8.237371
RightLeg 2.540476 -0.000000 -0.000000
RightFoot -10.168746 -11.403115 10.712106
RightToeBase 12.989909 -0.000000 -0.000000
3699
root 1.419456 32.226692 0.385740 -2.417560 -18.261389 -1.790834
Spine 2.733119 -15.818250 -4.449001
Head 13.186768 0.262889 7.335232
LeftShoulder -12.445253 3.706954 30.063268
LeftArm -9.751092 41.623224 -109.263964
LeftForeArm 2.995849 -0.000000 19.329116
LeftHand 9.653691 -0.000000 -5.624537
LeftHandThumb1 -26.253704 0.000000 33.147579
RightShoulder -31.270483 -22.664831 -35.757511
RightArm 141.943523 106.478573 198.237668
RightForeArm 25.783604 -0.000000 100.854463
RightHand 26.368034 -0.000000 -13.031328
RightHandThumb1 -24.326973 -0.000000 -32.862282
LeftUpLeg 16.058331 20.150623 8.361820
LeftLeg -1.337199 -0.000000 0.000000
LeftFoot -17.774090 12.479084 -27.109383
LeftToeBase 17.073892 -0.000000 -0.000000
RightUpLeg 6.549705 6.814436 8.269670
RightLeg 2.534902 -0.000000 -0.000000
RightFoot -10.143904 -11.378108 10.773256
RightToeBase 12.975462 -0.000000 -0.000000
3700
root 1.415111 32.226665 0.381565 -2.413033 -18.323470 -1.799549
Spine 2.737757 -15.787973 -4.462609
Head 13.180799 0.290257 7.346613
LeftShoulder -12.441417 3.687039 30.073433
LeftArm -9.771483 41.631095 -109.281282
LeftForeArm 2.972310 -0.000000 19.342730
LeftHand 9.675182 -0.000000 -5.609435
LeftHandThumb1 -26.253704 0.000000 33.147579
RightShoulder -31.259967 -22.655722 -35.769568
RightArm 142.008007 106.434107 198.238968
RightForeArm 25.773825 -0.000000 100.830444
RightHand 26.369237 -0.000000 -12.946392
RightHandThumb1 -24.326973 -0.000000 -32.862282
LeftUpLeg 16.061465 20.147756 8.370058
LeftLeg -1.328150 -0.000000 0.000000
LeftFoot -17.802311 12.517667 -27.135084
LeftToeBase 17.065306 -0.000000 -0.000000
RightUpLeg 6.532556 6.832134 8.283619
RightLeg 2.552860 -0.000000 -0.000000
RightFoot -10.122863 -11.339416 10.755104
RightToeBase 13.002258 -0.000000 -0.000000
3701
root 1.412293 32.226992 0.378452 -2.405929 -18.376031 -1.811539
Spine 2.736833 -15.776594 -4.457329
Head 13.181378 0.324393 7.325567
LeftShoulder -12.439361 3.692131 30.053992
LeftArm -9.767296 41.623957 -109.262895
LeftForeArm 2.969830 -0.000000 19.383024
LeftHand 9.712444 -0.000000 -5.609360
LeftHandThumb1 -26.253704 0.000000 33.147579
RightShoulder -31.230723 -22.634786 -35.807934
RightArm 141.998070 106.416092 198.169770
RightForeArm 25.782085 -0.000000 100.809347
RightHand 26.335322 -0.000000 -12.923939
RightHandThumb1 -24.326973 -0.000000 -32.862282
LeftUpLeg 16.058769 20.142384 8.375018
LeftLeg -1.308097 -0.000000 0.000000
LeftFoot -17.794405 12.559681 -27.072201
LeftToeBase 16.919747 -0.000000 -0.000000
RightUpLeg 6.493386 6.764365 8.291074
RightLeg 2.607869 -0.000000 -0.000000
RightFoot -10.100302 -11.252608 10.703879
RightToeBase 12.940550 -0.000000 -0.000000
3702
root 1.408427 32.226932 0.375408 -2.398374 -18.431471 -1.818347
Spine 2.729971 -15.751205 -4.459433
Head 13.182095 0.350558 7.311296
LeftShoulder -12.435813 3.716397 30.043477
LeftArm -9.728919 41.660010 -109.232347
LeftForeArm 2.956065 -0.000000 19.417805
LeftHand 9.666250 -0.000000 -5.651282
LeftHandThumb1 -26.253704 0.000000 33.147579
RightShoulder -31.212008 -22.616043 -35.849828
RightArm 142.021933 106.404545 198.132142
RightForeArm 25.757201 0.000000 100.782671
RightHand 26.295916 -0.000000 -12.892934
RightHandThumb1 -24.326973 -0.000000 -32.862282
LeftUpLeg 16.059220 20.135720 8.377836
LeftLeg -1.303143 -0.000000 0.000000
LeftFoot -17.876001 12.605294 -27.182262
LeftToeBase 16.990903 -0.000000 -0.000000
RightUpLeg 6.469564 6.751755 8.300205
RightLeg 2.634093 -0.000000 -0.000000
RightFoot -10.097181 -11.196156 10.681225
RightToeBase 13.016712 -0.000000 -0.000000
3703
root 1.403314 32.227299 0.372428 -2.394469 -18.480986 -1.836282
Spine 2.732171 -15.743047 -4.457484
Head 13.183040 0.381492 7.299727
LeftShoulder -12.432350 3.702149 30.036334
LeftArm -9.745911 41.675168 -109.230352
LeftForeArm 2.942456 -0.000000 19.439245
LeftHand 9.764473 -0.000000 -5.635327
LeftHandThumb1 -26.253704 0.000000 33.147579
RightShoulder -31.183144 -22.589030 -35.884569
RightArm 142.087121 106.413919 198.127201
RightForeArm 25.692004 -0.000000 100.768342
RightHand 26.263139 -0.000000 -13.097999
RightHandThumb1 -24.326973 -0.000000 -32.862282
LeftUpLeg 16.068717 20.139036 8.401094
LeftLeg -1.308435 -0.000000 0.000000
LeftFoot -17.864838 12.653107 -27.144364
LeftToeBase 17.009779 -0.000000 -0.000000
RightUpLeg 6.449494 6.720400 8.316979
RightLeg 2.664563 -0.000000 -0.000000
RightFoot -10.059032 -11.137273 10.641318
RightToeBase 12.991227 -0.000000 -0.000000
3704
root 1.399784 32.227096 0.369074 -2.394597 -18.529788 -1.842659
Spine 2.738615 -15.733035 -4.468084
Head 13.187326 0.412098 7.295633
LeftShoulder -12.428012 3.702568 30.032826
LeftArm -9.735120 41.682441 -109.217464
LeftForeArm 2.981660 -0.000000 19.460140
LeftHand 9.824638 -0.000000 -5.619636
LeftHandThumb1 -26.253704 0.000000 33.147579
RightShoulder -31.159894 -22.573105 -35.910923
RightArm 142.098266 106.406769 198.068422
RightForeArm 25.713369 -0.000000 100.742899
RightHand 26.279206 -0.000000 -13.080051
RightHandThumb1 -24.326973 -0.000000 -32.862282
LeftUpLeg 16.067114 20.137870 8.408091
LeftLeg -1.284789 -0.000000 0.000000
LeftFoot -17.886988 12.682013 -27.150878
LeftToeBase 17.000580 -0.000000 -0.000000
RightUpLeg 6.437419 6.746612 8.330254
RightLeg 2.682883 -0.000000 -0.000000
RightFoot -10.053951 -11.112099 10.633133
RightToeBase 13.033539 -0.000000 -0.000000
